<?xml version="1.0" encoding="UTF-8"?>
<svg xmlns="http://www.w3.org/2000/svg" xmlns:xlink="http://www.w3.org/1999/xlink" width="1000pt" height="1000pt" viewBox="0 0 1000 1000" version="1.1">
<defs>
<clipPath id="clip1">
  <path d="M 200 200 L 800 200 L 800 800 L 200 800 Z M 200 200 "/>
</clipPath>
<clipPath id="clip2">
  <path d="M 800 500 C 800 665.683594 665.683594 800 500 800 C 334.316406 800 200 665.683594 200 500 C 200 334.316406 334.316406 200 500 200 C 665.683594 200 800 334.316406 800 500 "/>
</clipPath>
</defs>
<g id="surface1">
<path style="fill-rule:nonzero;fill:rgb(32.156863%,71.372549%,81.960784%);fill-opacity:0.5;stroke-width:2.6;stroke-linecap:butt;stroke-linejoin:miter;stroke:rgb(32.156863%,71.372549%,81.960784%);stroke-opacity:1;stroke-miterlimit:10;" d="M 200 115 C 172.386719 115 150 108.285156 150 100 C 150 91.714844 172.386719 85 200 85 C 227.613281 85 250 91.714844 250 100 C 250 108.285156 227.613281 115 200 115 "/>
<path style="fill-rule:nonzero;fill:rgb(32.156863%,71.372549%,81.960784%);fill-opacity:0.5;stroke-width:0.005;stroke-linecap:butt;stroke-linejoin:miter;stroke:rgb(32.156863%,71.372549%,81.960784%);stroke-opacity:1;stroke-miterlimit:10;" d="M 0.146437 0.322219 L 0.146437 0.338625 L 0.132375 0.338625 L 0.132375 0.369969 C 0.132371 0.37632 0.132508 0.38002 0.132777 0.381066 C 0.133043 0.382121 0.133652 0.382988 0.134605 0.383668 C 0.135559 0.384355 0.136719 0.384695 0.138086 0.384691 C 0.139988 0.384695 0.142746 0.384035 0.146363 0.382715 L 0.148121 0.39868 C 0.143332 0.400734 0.13791 0.401758 0.131859 0.401758 C 0.128145 0.401758 0.124801 0.401137 0.121824 0.399891 C 0.118844 0.398648 0.11666 0.397039 0.11527 0.395059 C 0.113879 0.393082 0.112914 0.390406 0.112379 0.387035 C 0.111938 0.384645 0.111719 0.379812 0.111719 0.372535 L 0.111719 0.338625 L 0.10227 0.338625 L 0.10227 0.322219 L 0.111719 0.322219 L 0.111719 0.306762 L 0.132375 0.29475 L 0.132375 0.322219 Z M 0.205766 0.375242 L 0.226273 0.378688 C 0.223633 0.386211 0.219469 0.391934 0.213781 0.395863 C 0.20809 0.399793 0.200977 0.401758 0.192434 0.401758 C 0.178906 0.401758 0.168895 0.39734 0.162406 0.3885 C 0.157273 0.381426 0.154711 0.372492 0.154715 0.361695 C 0.154711 0.348809 0.158078 0.338711 0.16482 0.33141 C 0.171555 0.324113 0.180078 0.320465 0.190383 0.320461 C 0.201953 0.320465 0.211082 0.324285 0.217773 0.331922 C 0.224461 0.339566 0.22766 0.351273 0.227371 0.367039 L 0.175809 0.367039 C 0.175953 0.373148 0.177613 0.377895 0.180785 0.381285 C 0.183957 0.38468 0.18791 0.386379 0.192652 0.386375 C 0.195871 0.386379 0.198582 0.3855 0.200781 0.383738 C 0.202977 0.381984 0.204637 0.379152 0.205766 0.375242 Z M 0.206937 0.354445 C 0.206785 0.348488 0.205246 0.343961 0.20232 0.340859 C 0.199387 0.337762 0.195824 0.336211 0.191629 0.336207 C 0.187133 0.336211 0.183422 0.337844 0.180496 0.341113 C 0.177563 0.344387 0.176121 0.348832 0.176172 0.354445 Z M 0.236891 0.377809 L 0.257547 0.374656 C 0.258422 0.378664 0.260203 0.381703 0.262891 0.383777 C 0.265574 0.385855 0.269336 0.386895 0.274172 0.386891 C 0.279492 0.386895 0.283496 0.385918 0.286184 0.383961 C 0.287984 0.382598 0.288887 0.380766 0.288891 0.378469 C 0.288887 0.37691 0.288398 0.375617 0.28743 0.374586 C 0.286398 0.373613 0.284105 0.372707 0.280543 0.371875 C 0.263941 0.368215 0.253418 0.364871 0.248977 0.36184 C 0.24282 0.357645 0.239742 0.351809 0.239746 0.344336 C 0.239742 0.337598 0.242406 0.331934 0.24773 0.327344 C 0.253051 0.322758 0.261301 0.320465 0.272484 0.320461 C 0.283129 0.320465 0.291039 0.322199 0.296215 0.32566 C 0.301391 0.329129 0.304957 0.334254 0.30691 0.341039 L 0.2875 0.344629 C 0.286668 0.341602 0.285094 0.339285 0.282777 0.337672 C 0.280453 0.336062 0.277145 0.335254 0.272852 0.335254 C 0.26743 0.335254 0.263551 0.336012 0.261207 0.337523 C 0.259645 0.338602 0.258863 0.339992 0.258863 0.341699 C 0.258863 0.343168 0.259547 0.344414 0.260914 0.345434 C 0.262766 0.346805 0.269172 0.348734 0.280137 0.351223 C 0.291098 0.353715 0.298754 0.356766 0.303102 0.360375 C 0.307398 0.364039 0.309547 0.369141 0.309547 0.375684 C 0.309547 0.382813 0.306566 0.388941 0.300609 0.394066 C 0.294652 0.399195 0.28584 0.401758 0.274172 0.401758 C 0.263574 0.401758 0.255188 0.399609 0.249012 0.395313 C 0.242832 0.391016 0.238793 0.385184 0.236891 0.377809 Z M 0.363234 0.322219 L 0.363234 0.338625 L 0.349172 0.338625 L 0.349172 0.369969 C 0.349168 0.37632 0.349305 0.38002 0.349574 0.381066 C 0.34984 0.382121 0.350449 0.382988 0.351402 0.383668 C 0.352355 0.384355 0.353516 0.384695 0.354883 0.384691 C 0.356785 0.384695 0.359543 0.384035 0.36316 0.382715 L 0.364918 0.39868 C 0.360129 0.400734 0.354707 0.401758 0.348656 0.401758 C 0.344941 0.401758 0.341598 0.401137 0.338621 0.399891 C 0.335641 0.398648 0.333457 0.397039 0.332066 0.395059 C 0.330676 0.393082 0.329711 0.390406 0.329176 0.387035 C 0.328734 0.384645 0.328516 0.379812 0.328516 0.372535 L 0.328516 0.338625 L 0.319066 0.338625 L 0.319066 0.322219 L 0.328516 0.322219 L 0.328516 0.306762 L 0.349172 0.29475 L 0.349172 0.322219 Z M 0.425781 0.4 L 0.405203 0.4 L 0.405203 0.322437 C 0.39768 0.329473 0.388816 0.334672 0.378617 0.338039 L 0.378617 0.319359 C 0.383984 0.317605 0.38982 0.314273 0.396121 0.309363 C 0.402418 0.304457 0.406738 0.29873 0.409086 0.292187 L 0.425781 0.292187 Z M 0.450172 0.4 " transform="matrix(1000,0,0,1000,0,0)"/>
<path style="fill-rule:nonzero;fill:rgb(32.156863%,71.372549%,81.960784%);fill-opacity:0.5;stroke-width:0.005;stroke-linecap:butt;stroke-linejoin:miter;stroke:rgb(32.156863%,71.372549%,81.960784%);stroke-opacity:1;stroke-miterlimit:10;" d="M 0.146437 0.472219 L 0.146437 0.488625 L 0.132375 0.488625 L 0.132375 0.519969 C 0.132371 0.52632 0.132508 0.53002 0.132777 0.531066 C 0.133043 0.532121 0.133652 0.532988 0.134605 0.533668 C 0.135559 0.534355 0.136719 0.534695 0.138086 0.534691 C 0.139988 0.534695 0.142746 0.534035 0.146363 0.532715 L 0.148121 0.54868 C 0.143332 0.550734 0.13791 0.551758 0.131859 0.551758 C 0.128145 0.551758 0.124801 0.551137 0.121824 0.549891 C 0.118844 0.548648 0.11666 0.547039 0.11527 0.545059 C 0.113879 0.543082 0.112914 0.540406 0.112379 0.537035 C 0.111938 0.534645 0.111719 0.529813 0.111719 0.522535 L 0.111719 0.488625 L 0.10227 0.488625 L 0.10227 0.472219 L 0.111719 0.472219 L 0.111719 0.456762 L 0.132375 0.44475 L 0.132375 0.472219 Z M 0.205766 0.525242 L 0.226273 0.528687 C 0.223633 0.536211 0.219469 0.541934 0.213781 0.545863 C 0.20809 0.549793 0.200977 0.551758 0.192434 0.551758 C 0.178906 0.551758 0.168895 0.54734 0.162406 0.5385 C 0.157273 0.531426 0.154711 0.522492 0.154715 0.511695 C 0.154711 0.498809 0.158078 0.488711 0.16482 0.48141 C 0.171555 0.474113 0.180078 0.470465 0.190383 0.470461 C 0.201953 0.470465 0.211082 0.474285 0.217773 0.481922 C 0.224461 0.489566 0.22766 0.501273 0.227371 0.517039 L 0.175809 0.517039 C 0.175953 0.523148 0.177613 0.527895 0.180785 0.531285 C 0.183957 0.53468 0.18791 0.536379 0.192652 0.536375 C 0.195871 0.536379 0.198582 0.5355 0.200781 0.533738 C 0.202977 0.531984 0.204637 0.529152 0.205766 0.525242 Z M 0.206937 0.504445 C 0.206785 0.498488 0.205246 0.493961 0.20232 0.490859 C 0.199387 0.487762 0.195824 0.486211 0.191629 0.486207 C 0.187133 0.486211 0.183422 0.487844 0.180496 0.491113 C 0.177563 0.494387 0.176121 0.498832 0.176172 0.504445 Z M 0.236891 0.527809 L 0.257547 0.524656 C 0.258422 0.528664 0.260203 0.531703 0.262891 0.533777 C 0.265574 0.535855 0.269336 0.536895 0.274172 0.536891 C 0.279492 0.536895 0.283496 0.535918 0.286184 0.533961 C 0.287984 0.532598 0.288887 0.530766 0.288891 0.528469 C 0.288887 0.52691 0.288398 0.525617 0.28743 0.524586 C 0.286398 0.523613 0.284105 0.522707 0.280543 0.521875 C 0.263941 0.518215 0.253418 0.514871 0.248977 0.51184 C 0.24282 0.507645 0.239742 0.501809 0.239746 0.494336 C 0.239742 0.487598 0.242406 0.481934 0.24773 0.477344 C 0.253051 0.472758 0.261301 0.470465 0.272484 0.470461 C 0.283129 0.470465 0.291039 0.472199 0.296215 0.47566 C 0.301391 0.479129 0.304957 0.484254 0.30691 0.491039 L 0.2875 0.494629 C 0.286668 0.491602 0.285094 0.489285 0.282777 0.487672 C 0.280453 0.486063 0.277145 0.485254 0.272852 0.485254 C 0.26743 0.485254 0.263551 0.486012 0.261207 0.487523 C 0.259645 0.488602 0.258863 0.489992 0.258863 0.491699 C 0.258863 0.493168 0.259547 0.494414 0.260914 0.495434 C 0.262766 0.496805 0.269172 0.498734 0.280137 0.501223 C 0.291098 0.503715 0.298754 0.506766 0.303102 0.510375 C 0.307398 0.514039 0.309547 0.519141 0.309547 0.525684 C 0.309547 0.532813 0.306566 0.538941 0.300609 0.544066 C 0.294652 0.549195 0.28584 0.551758 0.274172 0.551758 C 0.263574 0.551758 0.255188 0.549609 0.249012 0.545312 C 0.242832 0.541016 0.238793 0.535184 0.236891 0.527809 Z M 0.363234 0.472219 L 0.363234 0.488625 L 0.349172 0.488625 L 0.349172 0.519969 C 0.349168 0.52632 0.349305 0.53002 0.349574 0.531066 C 0.34984 0.532121 0.350449 0.532988 0.351402 0.533668 C 0.352355 0.534355 0.353516 0.534695 0.354883 0.534691 C 0.356785 0.534695 0.359543 0.534035 0.36316 0.532715 L 0.364918 0.54868 C 0.360129 0.550734 0.354707 0.551758 0.348656 0.551758 C 0.344941 0.551758 0.341598 0.551137 0.338621 0.549891 C 0.335641 0.548648 0.333457 0.547039 0.332066 0.545059 C 0.330676 0.543082 0.329711 0.540406 0.329176 0.537035 C 0.328734 0.534645 0.328516 0.529813 0.328516 0.522535 L 0.328516 0.488625 L 0.319066 0.488625 L 0.319066 0.472219 L 0.328516 0.472219 L 0.328516 0.456762 L 0.349172 0.44475 L 0.349172 0.472219 Z M 0.467453 0.55 L 0.446875 0.55 L 0.446875 0.472438 C 0.439352 0.479473 0.430488 0.484672 0.420289 0.488039 L 0.420289 0.469359 C 0.425656 0.467605 0.431492 0.464273 0.437793 0.459363 C 0.44409 0.454457 0.44841 0.44873 0.450758 0.442188 L 0.467453 0.442188 Z M 0.533012 0.442188 C 0.543406 0.442188 0.551535 0.445898 0.557398 0.45332 C 0.564375 0.462109 0.567867 0.476687 0.567871 0.497047 C 0.567867 0.517363 0.564352 0.531961 0.557324 0.540844 C 0.551512 0.548168 0.543406 0.551828 0.533012 0.551832 C 0.522559 0.551828 0.514137 0.547816 0.507738 0.539785 C 0.50134 0.531754 0.498141 0.517434 0.498145 0.496828 C 0.498141 0.476613 0.501656 0.462062 0.508691 0.453172 C 0.5145 0.445852 0.522605 0.442188 0.533012 0.442188 Z M 0.533012 0.459254 C 0.530516 0.459258 0.528293 0.460051 0.526344 0.461637 C 0.524387 0.463227 0.522875 0.46607 0.521805 0.470164 C 0.520387 0.475492 0.51968 0.484453 0.51968 0.497047 C 0.51968 0.509648 0.520312 0.518301 0.521582 0.523012 C 0.522852 0.527723 0.524449 0.530859 0.526379 0.532422 C 0.528305 0.533984 0.530516 0.534766 0.533012 0.534766 C 0.535496 0.534766 0.537719 0.533973 0.539676 0.532387 C 0.541625 0.530801 0.543137 0.527957 0.544215 0.523852 C 0.545629 0.518582 0.54634 0.509648 0.54634 0.497047 C 0.54634 0.484453 0.545703 0.475797 0.544434 0.471082 C 0.543164 0.466375 0.541566 0.463227 0.539637 0.461637 C 0.537707 0.460051 0.535496 0.459258 0.533012 0.459254 Z M 0.616434 0.442188 C 0.626828 0.442188 0.634957 0.445898 0.64082 0.45332 C 0.647797 0.462109 0.651289 0.476687 0.651293 0.497047 C 0.651289 0.517363 0.647773 0.531961 0.640746 0.540844 C 0.634934 0.548168 0.626828 0.551828 0.616434 0.551832 C 0.60598 0.551828 0.597559 0.547816 0.59116 0.539785 C 0.584762 0.531754 0.581562 0.517434 0.581566 0.496828 C 0.581562 0.476613 0.585078 0.462062 0.592113 0.453172 C 0.597922 0.445852 0.606027 0.442188 0.616434 0.442188 Z M 0.616434 0.459254 C 0.613938 0.459258 0.611715 0.460051 0.609766 0.461637 C 0.607809 0.463227 0.606297 0.46607 0.605227 0.470164 C 0.603809 0.475492 0.603102 0.484453 0.603102 0.497047 C 0.603102 0.509648 0.603734 0.518301 0.605004 0.523012 C 0.606273 0.527723 0.607871 0.530859 0.609801 0.532422 C 0.611727 0.533984 0.613938 0.534766 0.616434 0.534766 C 0.618918 0.534766 0.621141 0.533973 0.623098 0.532387 C 0.625047 0.530801 0.626559 0.527957 0.627637 0.523852 C 0.629051 0.518582 0.629762 0.509648 0.629762 0.497047 C 0.629762 0.484453 0.629125 0.475797 0.627855 0.471082 C 0.626586 0.466375 0.624988 0.463227 0.623059 0.461637 C 0.621129 0.460051 0.618918 0.459258 0.616434 0.459254 Z M 0.658691 0.55 " transform="matrix(1000,0,0,1000,0,0)"/>
<g clip-path="url(#clip1)" clip-rule="nonzero">
<g clip-path="url(#clip2)" clip-rule="nonzero">
<rect x="0" y="0" width="1000" height="1000" style="fill:rgb(0%,0%,0%);fill-opacity:1;stroke:none;"/>
<path style="fill:none;stroke-width:0.04;stroke-linecap:butt;stroke-linejoin:miter;stroke:rgb(0%,100%,0%);stroke-opacity:1;stroke-miterlimit:10;" d="M 0 0 L 1 1 M 1 0 L 0 1 " transform="matrix(1000,0,0,1000,0,0)"/>
</g>
</g>
</g>
</svg>
